<svg xmlns="http://www.w3.org/2000/svg" xmlns:xlink="http://www.w3.org/1999/xlink" width="156" zoomAndPan="magnify" viewBox="0 0 116.88 55.5" height="74" preserveAspectRatio="xMidYMid meet" version="1.0"><defs><g/><clipPath id="85e69c900b"><path d="M 100.753906 36.011719 L 107.628906 36.011719 L 107.628906 42.890625 L 100.753906 42.890625 Z M 100.753906 36.011719 " clip-rule="nonzero"/></clipPath><clipPath id="1d061fdc8a"><path d="M 104.191406 36.011719 C 102.292969 36.011719 100.753906 37.550781 100.753906 39.453125 C 100.753906 41.351562 102.292969 42.890625 104.191406 42.890625 C 106.089844 42.890625 107.628906 41.351562 107.628906 39.453125 C 107.628906 37.550781 106.089844 36.011719 104.191406 36.011719 Z M 104.191406 36.011719 " clip-rule="nonzero"/></clipPath></defs><g fill="#ffffff" fill-opacity="1"><g transform="translate(2.610084, 41.624999)"><g><path d="M 31.859375 0 L 29 -7.78125 L 12.6875 -7.78125 L 9.875 0 L 0.53125 0 L 16.546875 -40.921875 L 24.90625 -40.921875 L 41.453125 0 Z M 20.8125 -30.109375 L 15.5 -15.5 L 26.1875 -15.5 Z M 20.8125 -30.109375 "/></g></g></g><g fill="#ffffff" fill-opacity="1"><g transform="translate(44.588258, 41.624999)"><g><path d="M 29.578125 -31.578125 L 35.140625 -31.578125 L 35.140625 -3.6875 C 35.140625 -0.375 34.484375 2.46875 33.171875 4.84375 C 31.867188 7.226562 30.007812 9.0625 27.59375 10.34375 C 25.175781 11.632812 22.3125 12.28125 19 12.28125 C 14.71875 12.28125 11.140625 11.242188 8.265625 9.171875 C 5.398438 7.109375 3.617188 4.285156 2.921875 0.703125 L 11.40625 0.703125 C 11.875 2.109375 12.835938 3.171875 14.296875 3.890625 C 15.753906 4.609375 17.265625 4.96875 18.828125 4.96875 C 21.003906 4.96875 22.863281 4.3125 24.40625 3 C 25.945312 1.695312 26.71875 -0.117188 26.71875 -2.453125 L 26.71875 -3.625 C 25.46875 -2.726562 24.082031 -2.035156 22.5625 -1.546875 C 21.039062 -1.054688 19.425781 -0.8125 17.71875 -0.8125 C 14.789062 -0.8125 12.140625 -1.515625 9.765625 -2.921875 C 7.390625 -4.328125 5.507812 -6.21875 4.125 -8.59375 C 2.738281 -10.96875 2.046875 -13.640625 2.046875 -16.609375 C 2.046875 -19.566406 2.738281 -22.242188 4.125 -24.640625 C 5.507812 -27.035156 7.390625 -28.9375 9.765625 -30.34375 C 12.140625 -31.75 14.789062 -32.453125 17.71875 -32.453125 C 19.78125 -32.453125 21.707031 -32.097656 23.5 -31.390625 C 25.289062 -30.691406 26.867188 -29.703125 28.234375 -28.421875 Z M 18.703125 -8.421875 C 21.046875 -8.421875 22.976562 -9.1875 24.5 -10.71875 C 26.019531 -12.257812 26.78125 -14.222656 26.78125 -16.609375 C 26.78125 -18.941406 26.03125 -20.878906 24.53125 -22.421875 C 23.03125 -23.960938 21.085938 -24.734375 18.703125 -24.734375 C 16.410156 -24.734375 14.503906 -23.960938 12.984375 -22.421875 C 11.460938 -20.878906 10.703125 -18.941406 10.703125 -16.609375 C 10.703125 -14.222656 11.453125 -12.257812 12.953125 -10.71875 C 14.453125 -9.1875 16.367188 -8.421875 18.703125 -8.421875 Z M 18.703125 -8.421875 "/></g></g></g><g fill="#ffffff" fill-opacity="1"><g transform="translate(83.818558, 41.624999)"><g><path d="M 20.234375 -31.75 L 23.03125 -31.75 L 23.03125 -23.6875 L 19.359375 -23.6875 C 16.941406 -23.6875 15.210938 -23.117188 14.171875 -21.984375 C 13.140625 -20.847656 12.625 -19 12.625 -16.4375 L 12.625 0 L 4.09375 0 L 4.09375 -31.578125 L 9.59375 -31.578125 L 11.109375 -27.71875 C 13.253906 -30.40625 16.296875 -31.75 20.234375 -31.75 Z M 20.234375 -31.75 "/></g></g></g><g clip-path="url(#85e69c900b)"><g clip-path="url(#1d061fdc8a)"><path fill="#ffffff" d="M 100.753906 36.011719 L 107.628906 36.011719 L 107.628906 42.890625 L 100.753906 42.890625 Z M 100.753906 36.011719 " fill-opacity="1" fill-rule="nonzero"/></g></g></svg>